<svg xmlns="http://www.w3.org/2000/svg" viewBox="0 0 512 512" fill="none">
  <rect width="512" height="512" rx="108" fill="#a9d0db"/>
  <path
    fill="#1a2e44"
    fill-opacity="0.12"
    d="M96 128c0-22 18-40 40-40h240c22 0 40 18 40 40v200c0 22-18 40-40 40H136c-22 0-40-18-40-40V128z"
  />
  <path
    stroke="#1a2e44"
    stroke-width="14"
    stroke-linejoin="round"
    d="M136 96h240v200H136V96z"
  />
  <circle cx="208" cy="188" r="22" fill="#22c55e"/>
  <circle cx="304" cy="156" r="18" fill="#22c55e"/>
  <circle cx="272" cy="252" r="20" fill="#22c55e"/>
  <circle cx="344" cy="220" r="16" fill="#3b82f6"/>
  <circle cx="176" cy="248" r="14" fill="#3b82f6"/>
  <path
    stroke="#1a2e44"
    stroke-width="10"
    stroke-linecap="round"
    d="M120 352h272"
  />
  <path
    fill="#1a2e44"
    d="M228 352l28 44 28-44H228z"
  />
</svg>
